<svg width="800" height="400" viewBox="0 0 800 400" xmlns="http://www.w3.org/2000/svg"><mask id="satori_om-id"><rect x="0" y="0" width="800" height="400" fill="#fff"/></mask><rect x="0" y="0" width="800" height="400" fill="#fff"/><mask id="satori_om-id-0"><rect x="0" y="35" width="800" height="255" fill="#fff"/></mask><mask id="satori_om-id-0-0"><rect x="32" y="87" width="736" height="80" fill="#fff"/></mask><mask id="satori_om-id-0-0-0"><rect x="32" y="87" width="736" height="80" fill="#fff"/></mask><path fill="#111827" d="M105.7 110.8L96.1 93.9L102.3 93.9L108.3 105.2L108.6 105.2L114.5 93.9L120.7 93.9L111.2 110.8L111.2 120.1L105.7 120.1L105.7 110.8ZM127.5 120.5L127.5 120.5Q124.6 120.5 122.4 119.2Q120.2 117.9 119.1 115.6Q117.9 113.4 117.9 110.3L117.9 110.3Q117.9 107.3 119.1 105.0Q120.2 102.7 122.4 101.5Q124.6 100.2 127.5 100.2L127.5 100.2Q130.5 100.2 132.7 101.5Q134.9 102.7 136.0 105.0Q137.2 107.3 137.2 110.3L137.2 110.3Q137.2 113.4 136.0 115.6Q134.9 117.9 132.7 119.2Q130.5 120.5 127.5 120.5ZM127.6 116.3L127.6 116.3Q128.9 116.3 129.8 115.5Q130.7 114.7 131.2 113.4Q131.7 112.0 131.7 110.3L131.7 110.3Q131.7 108.6 131.2 107.3Q130.7 105.9 129.8 105.1Q128.9 104.4 127.6 104.4L127.6 104.4Q126.2 104.4 125.3 105.1Q124.4 105.9 123.9 107.3Q123.4 108.6 123.4 110.3L123.4 110.3Q123.4 112.0 123.9 113.4Q124.4 114.7 125.3 115.5Q126.2 116.3 127.6 116.3ZM152.5 111.7L152.5 111.7L152.5 100.5L157.9 100.5L157.9 120.1L152.7 120.1L152.7 116.5L152.5 116.5Q151.8 118.3 150.3 119.3Q148.7 120.3 146.5 120.3L146.5 120.3Q144.5 120.3 143.1 119.5Q141.6 118.6 140.7 116.9Q139.9 115.3 139.9 113.0L139.9 113.0L139.9 100.5L145.3 100.5L145.3 112.0Q145.3 113.7 146.2 114.7Q147.2 115.7 148.7 115.7L148.7 115.7Q149.7 115.7 150.6 115.3Q151.4 114.8 151.9 113.9Q152.5 113.0 152.5 111.7ZM166.8 120.1L161.4 120.1L161.4 100.5L166.6 100.5L166.6 103.9L166.8 103.9Q167.4 102.1 168.6 101.1Q169.9 100.2 171.6 100.2L171.6 100.2Q172.0 100.2 172.4 100.2Q172.9 100.3 173.3 100.4L173.3 100.4L173.3 105.2Q172.9 105.1 172.2 105.0Q171.5 104.9 171.0 104.9L171.0 104.9Q169.8 104.9 168.8 105.4Q167.9 105.9 167.3 106.9Q166.8 107.8 166.8 109.0L166.8 109.0L166.8 120.1Z M209.8 102.4L204.2 102.4Q203.9 101.4 203.4 100.7Q202.9 100.0 202.2 99.5Q201.5 99.0 200.6 98.7Q199.7 98.4 198.7 98.4L198.7 98.4Q196.7 98.4 195.2 99.4Q193.6 100.4 192.8 102.3Q191.9 104.2 191.9 107.0L191.9 107.0Q191.9 109.7 192.8 111.6Q193.6 113.5 195.1 114.5Q196.7 115.6 198.7 115.6L198.7 115.6Q200.6 115.6 201.9 114.9Q203.3 114.2 204.0 113.0Q204.7 111.8 204.7 110.1L204.7 110.1L205.8 110.2L199.1 110.2L199.1 106.1L210.0 106.1L210.0 109.4Q210.0 112.8 208.6 115.3Q207.1 117.8 204.6 119.1Q202.0 120.4 198.7 120.4L198.7 120.4Q195.0 120.4 192.2 118.8Q189.4 117.2 187.9 114.2Q186.3 111.2 186.3 107.0L186.3 107.0Q186.3 103.8 187.3 101.3Q188.2 98.8 189.9 97.1Q191.5 95.4 193.8 94.5Q196.0 93.6 198.6 93.6L198.6 93.6Q200.8 93.6 202.7 94.2Q204.6 94.8 206.1 96.0Q207.6 97.2 208.6 98.8Q209.5 100.4 209.8 102.4L209.8 102.4ZM218.8 120.5L218.8 120.5Q216.9 120.5 215.4 119.8Q214.0 119.1 213.1 117.8Q212.3 116.5 212.3 114.6L212.3 114.6Q212.3 113.0 212.9 111.9Q213.5 110.7 214.5 110.1Q215.5 109.4 216.9 109.0Q218.2 108.7 219.6 108.6L219.6 108.6Q221.3 108.4 222.4 108.2Q223.4 108.1 223.9 107.7Q224.4 107.4 224.4 106.8L224.4 106.8L224.4 106.7Q224.4 105.5 223.6 104.8Q222.9 104.2 221.5 104.2L221.5 104.2Q220.0 104.2 219.1 104.8Q218.3 105.5 218.0 106.4L218.0 106.4L212.9 106.0Q213.3 104.2 214.5 102.9Q215.6 101.6 217.4 100.9Q219.1 100.2 221.5 100.2L221.5 100.2Q223.1 100.2 224.6 100.6Q226.1 101.0 227.3 101.8Q228.5 102.6 229.2 103.8Q229.8 105.1 229.8 106.8L229.8 106.8L229.8 120.1L224.7 120.1L224.7 117.4L224.5 117.4Q224.0 118.3 223.3 119.0Q222.5 119.7 221.3 120.1Q220.2 120.5 218.8 120.5ZM220.3 116.7L220.3 116.7Q221.5 116.7 222.5 116.2Q223.4 115.7 223.9 114.9Q224.4 114.1 224.4 113.1L224.4 113.1L224.4 111.0Q224.2 111.2 223.7 111.3Q223.3 111.4 222.7 111.5Q222.2 111.6 221.6 111.7Q221.1 111.8 220.6 111.9L220.6 111.9Q219.7 112.0 219.0 112.3Q218.3 112.6 217.9 113.1Q217.5 113.7 217.5 114.4L217.5 114.4Q217.5 115.5 218.3 116.1Q219.1 116.7 220.3 116.7ZM231.8 100.5L243.6 100.5L243.6 104.5L231.8 104.5L231.8 100.5ZM234.5 114.8L234.5 95.8L239.9 95.8L239.9 114.1Q239.9 114.8 240.1 115.2Q240.4 115.6 240.8 115.8Q241.2 116.0 241.8 116.0L241.8 116.0Q242.1 116.0 242.5 115.9Q242.9 115.8 243.1 115.8L243.1 115.8L244.0 119.8Q243.6 120.0 242.8 120.1Q242.1 120.3 241.0 120.4L241.0 120.4Q239.0 120.4 237.6 119.8Q236.1 119.2 235.3 118.0Q234.5 116.7 234.5 114.8L234.5 114.8ZM255.0 120.5L255.0 120.5Q252.0 120.5 249.8 119.2Q247.6 118.0 246.4 115.7Q245.3 113.5 245.3 110.4L245.3 110.4Q245.3 107.3 246.4 105.0Q247.6 102.8 249.7 101.5Q251.9 100.2 254.8 100.2L254.8 100.2Q256.7 100.2 258.4 100.8Q260.1 101.4 261.3 102.7Q262.6 103.9 263.3 105.8Q264.0 107.7 264.0 110.2L264.0 110.2L264.0 111.7L247.4 111.7L247.4 108.3L258.9 108.3Q258.9 107.1 258.4 106.2Q257.9 105.3 257.0 104.8Q256.1 104.3 254.9 104.3L254.9 104.3Q253.6 104.3 252.7 104.8Q251.7 105.4 251.2 106.4Q250.6 107.3 250.6 108.5L250.6 108.5L250.6 111.7Q250.6 113.1 251.2 114.2Q251.7 115.3 252.7 115.8Q253.7 116.4 255.1 116.4L255.1 116.4Q256.0 116.4 256.7 116.2Q257.5 115.9 258.0 115.4Q258.6 114.9 258.9 114.1L258.9 114.1L263.9 114.5Q263.5 116.3 262.3 117.6Q261.1 119.0 259.3 119.7Q257.4 120.5 255.0 120.5ZM276.1 120.1L270.4 120.1L265.0 100.5L270.5 100.5L273.6 113.6L273.8 113.6L276.9 100.5L282.3 100.5L285.6 113.6L285.7 113.6L288.7 100.5L294.2 100.5L288.9 120.1L283.1 120.1L279.8 107.7L279.5 107.7L276.1 120.1ZM301.8 120.5L301.8 120.5Q299.9 120.5 298.5 119.8Q297.0 119.1 296.1 117.8Q295.3 116.5 295.3 114.6L295.3 114.6Q295.3 113.0 295.9 111.9Q296.5 110.7 297.5 110.1Q298.6 109.4 299.9 109.0Q301.2 108.7 302.7 108.6L302.7 108.6Q304.4 108.4 305.4 108.2Q306.5 108.1 307.0 107.7Q307.4 107.4 307.4 106.8L307.4 106.8L307.4 106.7Q307.4 105.5 306.7 104.8Q305.9 104.2 304.5 104.2L304.5 104.2Q303.0 104.2 302.2 104.8Q301.3 105.5 301.0 106.4L301.0 106.4L296.0 106.0Q296.4 104.2 297.5 102.9Q298.6 101.6 300.4 100.9Q302.2 100.2 304.5 100.2L304.5 100.2Q306.2 100.2 307.7 100.6Q309.2 101.0 310.3 101.8Q311.5 102.6 312.2 103.8Q312.9 105.1 312.9 106.8L312.9 106.8L312.9 120.1L307.7 120.1L307.7 117.4L307.6 117.4Q307.1 118.3 306.3 119.0Q305.5 119.7 304.4 120.1Q303.3 120.5 301.8 120.5ZM303.4 116.7L303.4 116.7Q304.6 116.7 305.5 116.2Q306.4 115.7 306.9 114.9Q307.5 114.1 307.5 113.1L307.5 113.1L307.5 111.0Q307.2 111.2 306.8 111.3Q306.3 111.4 305.8 111.5Q305.2 111.6 304.7 111.7Q304.1 111.8 303.7 111.9L303.7 111.9Q302.7 112.0 302.0 112.3Q301.3 112.6 300.9 113.1Q300.5 113.7 300.5 114.4L300.5 114.4Q300.5 115.5 301.3 116.1Q302.1 116.7 303.4 116.7ZM318.9 127.5L318.9 127.5Q317.8 127.5 316.9 127.3Q316.0 127.1 315.4 126.9L315.4 126.9L316.7 122.8Q317.6 123.1 318.4 123.1Q319.2 123.2 319.7 122.8Q320.3 122.4 320.7 121.5L320.7 121.5L321.0 120.7L313.9 100.5L319.7 100.5L323.7 114.9L323.9 114.9L328.0 100.5L333.8 100.5L326.2 122.2Q325.6 123.8 324.7 125.0Q323.7 126.2 322.3 126.8Q320.9 127.5 318.9 127.5Z M342.8 100.5L354.6 100.5L354.6 104.5L342.8 104.5L342.8 100.5ZM345.5 114.8L345.5 95.8L351.0 95.8L351.0 114.1Q351.0 114.8 351.2 115.2Q351.4 115.6 351.8 115.8Q352.2 116.0 352.8 116.0L352.8 116.0Q353.2 116.0 353.6 115.9Q353.9 115.8 354.1 115.8L354.1 115.8L355.0 119.8Q354.6 120.0 353.9 120.1Q353.1 120.3 352.1 120.4L352.1 120.4Q350.1 120.4 348.6 119.8Q347.1 119.2 346.3 118.0Q345.5 116.7 345.5 114.8L345.5 114.8ZM366.0 120.5L366.0 120.5Q363.0 120.5 360.8 119.2Q358.6 117.9 357.5 115.6Q356.3 113.4 356.3 110.3L356.3 110.3Q356.3 107.3 357.5 105.0Q358.6 102.7 360.8 101.5Q363.0 100.2 366.0 100.2L366.0 100.2Q368.9 100.2 371.1 101.5Q373.3 102.7 374.4 105.0Q375.6 107.3 375.6 110.3L375.6 110.3Q375.6 113.4 374.4 115.6Q373.3 117.9 371.1 119.2Q368.9 120.5 366.0 120.5ZM366.0 116.3L366.0 116.3Q367.3 116.3 368.2 115.5Q369.2 114.7 369.6 113.4Q370.1 112.0 370.1 110.3L370.1 110.3Q370.1 108.6 369.6 107.3Q369.2 105.9 368.2 105.1Q367.3 104.4 366.0 104.4L366.0 104.4Q364.6 104.4 363.7 105.1Q362.8 105.9 362.3 107.3Q361.8 108.6 361.8 110.3L361.8 110.3Q361.8 112.0 362.3 113.4Q362.8 114.7 363.7 115.5Q364.6 116.3 366.0 116.3Z M403.7 120.1L386.0 120.1L386.0 93.9L403.7 93.9L403.7 98.5L391.6 98.5L391.6 104.7L402.8 104.7L402.8 109.3L391.6 109.3L391.6 115.5L403.7 115.5L403.7 120.1ZM405.5 100.5L417.6 100.5L417.6 104.5L405.5 104.5L405.5 100.5ZM413.7 120.1L408.3 120.1L408.3 99.0Q408.3 96.9 409.1 95.5Q410.0 94.1 411.4 93.4Q412.9 92.7 414.7 92.7L414.7 92.7Q416.0 92.7 417.0 92.9Q418.1 93.1 418.6 93.2L418.6 93.2L417.6 97.3Q417.3 97.2 416.8 97.1Q416.4 97.0 415.9 97.0L415.9 97.0Q414.7 97.0 414.2 97.6Q413.7 98.1 413.7 99.1L413.7 99.1L413.7 120.1ZM418.5 100.5L430.6 100.5L430.6 104.5L418.5 104.5L418.5 100.5ZM426.7 120.1L421.3 120.1L421.3 99.0Q421.3 96.9 422.1 95.5Q423.0 94.1 424.4 93.4Q425.9 92.7 427.7 92.7L427.7 92.7Q429.0 92.7 430.0 92.9Q431.1 93.1 431.6 93.2L431.6 93.2L430.6 97.3Q430.3 97.2 429.8 97.1Q429.3 97.0 428.9 97.0L428.9 97.0Q427.7 97.0 427.2 97.6Q426.7 98.1 426.7 99.1L426.7 99.1L426.7 120.1ZM441.2 120.5L441.2 120.5Q438.3 120.5 436.1 119.2Q433.9 117.9 432.7 115.6Q431.6 113.4 431.6 110.3L431.6 110.3Q431.6 107.3 432.7 105.0Q433.9 102.7 436.1 101.5Q438.3 100.2 441.2 100.2L441.2 100.2Q444.2 100.2 446.4 101.5Q448.5 102.7 449.7 105.0Q450.9 107.3 450.9 110.3L450.9 110.3Q450.9 113.4 449.7 115.6Q448.5 117.9 446.4 119.2Q444.2 120.5 441.2 120.5ZM441.3 116.3L441.3 116.3Q442.6 116.3 443.5 115.5Q444.4 114.7 444.9 113.4Q445.4 112.0 445.4 110.3L445.4 110.3Q445.4 108.6 444.9 107.3Q444.4 105.9 443.5 105.1Q442.6 104.4 441.3 104.4L441.3 104.4Q439.9 104.4 439.0 105.1Q438.0 105.9 437.6 107.3Q437.1 108.6 437.1 110.3L437.1 110.3Q437.1 112.0 437.6 113.4Q438.0 114.7 439.0 115.5Q439.9 116.3 441.3 116.3ZM459.0 120.1L453.5 120.1L453.5 100.5L458.8 100.5L458.8 103.9L459.0 103.9Q459.6 102.1 460.8 101.1Q462.1 100.2 463.8 100.2L463.8 100.2Q464.2 100.2 464.6 100.2Q465.1 100.3 465.5 100.4L465.5 100.4L465.5 105.2Q465.1 105.1 464.4 105.0Q463.7 104.9 463.2 104.9L463.2 104.9Q462.0 104.9 461.0 105.4Q460.1 105.9 459.5 106.9Q459.0 107.8 459.0 109.0L459.0 109.0L459.0 120.1ZM467.0 100.5L478.8 100.5L478.8 104.5L467.0 104.5L467.0 100.5ZM469.7 114.8L469.7 95.8L475.1 95.8L475.1 114.1Q475.1 114.8 475.3 115.2Q475.6 115.6 476.0 115.8Q476.4 116.0 476.9 116.0L476.9 116.0Q477.3 116.0 477.7 115.9Q478.1 115.8 478.3 115.8L478.3 115.8L479.2 119.8Q478.7 120.0 478.0 120.1Q477.3 120.3 476.2 120.4L476.2 120.4Q474.2 120.4 472.8 119.8Q471.3 119.2 470.5 118.0Q469.6 116.7 469.7 114.8L469.7 114.8ZM481.8 93.9L487.3 93.9L487.3 120.1L481.8 120.1L481.8 93.9ZM499.7 120.5L499.7 120.5Q496.7 120.5 494.5 119.2Q492.3 118.0 491.1 115.7Q489.9 113.5 489.9 110.4L489.9 110.4Q489.9 107.3 491.1 105.0Q492.3 102.8 494.4 101.5Q496.6 100.2 499.5 100.2L499.5 100.2Q501.4 100.2 503.1 100.8Q504.8 101.4 506.0 102.7Q507.3 103.9 508.0 105.8Q508.7 107.7 508.7 110.2L508.7 110.2L508.7 111.7L492.1 111.7L492.1 108.3L503.6 108.3Q503.6 107.1 503.1 106.2Q502.5 105.3 501.6 104.8Q500.7 104.3 499.6 104.3L499.6 104.3Q498.3 104.3 497.4 104.8Q496.4 105.4 495.9 106.4Q495.3 107.3 495.3 108.5L495.3 108.5L495.3 111.7Q495.3 113.1 495.9 114.2Q496.4 115.3 497.4 115.8Q498.4 116.4 499.8 116.4L499.8 116.4Q500.7 116.4 501.4 116.2Q502.2 115.9 502.7 115.4Q503.3 114.9 503.5 114.1L503.5 114.1L508.6 114.5Q508.2 116.3 507.0 117.6Q505.8 119.0 504.0 119.7Q502.1 120.5 499.7 120.5ZM527.7 106.1L527.7 106.1L522.7 106.4Q522.6 105.7 522.2 105.2Q521.7 104.7 521.0 104.4Q520.4 104.1 519.4 104.1L519.4 104.1Q518.2 104.1 517.3 104.6Q516.4 105.1 516.4 106.0L516.4 106.0Q516.4 106.7 517.0 107.2Q517.5 107.7 518.9 108.0L518.9 108.0L522.5 108.7Q525.3 109.3 526.7 110.6Q528.1 111.9 528.1 114.0L528.1 114.0Q528.1 115.9 527.0 117.4Q525.9 118.9 523.9 119.7Q521.9 120.5 519.4 120.5L519.4 120.5Q515.5 120.5 513.2 118.8Q510.9 117.2 510.5 114.4L510.5 114.4L515.8 114.1Q516.1 115.3 517.0 115.9Q517.9 116.5 519.4 116.5L519.4 116.5Q520.8 116.5 521.7 116.0Q522.6 115.4 522.6 114.6L522.6 114.6Q522.6 113.8 522.0 113.3Q521.4 112.9 520.1 112.6L520.1 112.6L516.7 111.9Q513.8 111.3 512.4 109.9Q511.0 108.5 511.0 106.3L511.0 106.3Q511.0 104.4 512.0 103.0Q513.1 101.7 514.9 100.9Q516.8 100.2 519.3 100.2L519.3 100.2Q523.0 100.2 525.2 101.8Q527.3 103.3 527.7 106.1ZM547.0 106.1L547.0 106.1L542.0 106.4Q541.9 105.7 541.5 105.2Q541.1 104.7 540.4 104.4Q539.7 104.1 538.7 104.1L538.7 104.1Q537.5 104.1 536.6 104.6Q535.7 105.1 535.7 106.0L535.7 106.0Q535.7 106.7 536.3 107.2Q536.9 107.7 538.2 108.0L538.2 108.0L541.8 108.7Q544.6 109.3 546.1 110.6Q547.5 111.9 547.5 114.0L547.5 114.0Q547.5 115.9 546.3 117.4Q545.2 118.9 543.2 119.7Q541.3 120.5 538.7 120.5L538.7 120.5Q534.8 120.5 532.5 118.8Q530.2 117.2 529.8 114.4L529.8 114.4L535.2 114.1Q535.4 115.3 536.3 115.9Q537.3 116.5 538.7 116.5L538.7 116.5Q540.2 116.5 541.0 116.0Q541.9 115.4 541.9 114.6L541.9 114.6Q541.9 113.8 541.3 113.3Q540.7 112.9 539.4 112.6L539.4 112.6L536.0 111.9Q533.1 111.3 531.7 109.9Q530.3 108.5 530.3 106.3L530.3 106.3Q530.3 104.4 531.4 103.0Q532.4 101.7 534.3 100.9Q536.1 100.2 538.7 100.2L538.7 100.2Q542.4 100.2 544.5 101.8Q546.7 103.3 547.0 106.1Z M562.4 120.1L556.8 120.1L556.8 93.9L574.2 93.9L574.2 98.5L562.4 98.5L562.4 104.7L573.0 104.7L573.0 109.3L562.4 109.3L562.4 120.1ZM582.3 120.1L576.9 120.1L576.9 100.5L582.3 100.5L582.3 120.1ZM579.6 97.9L579.6 97.9Q578.4 97.9 577.6 97.1Q576.7 96.3 576.7 95.2L576.7 95.2Q576.7 94.0 577.6 93.2Q578.4 92.4 579.6 92.4L579.6 92.4Q580.9 92.4 581.7 93.2Q582.6 94.0 582.6 95.2L582.6 95.2Q582.6 96.3 581.7 97.1Q580.9 97.9 579.6 97.9ZM591.2 108.7L591.2 108.7L591.2 120.1L585.8 120.1L585.8 100.5L591.0 100.5L591.0 103.9L591.2 103.9Q591.9 102.2 593.4 101.2Q594.9 100.2 597.1 100.2L597.1 100.2Q599.2 100.2 600.7 101.1Q602.2 102.0 603.1 103.6Q603.9 105.3 603.9 107.6L603.9 107.6L603.9 120.1L598.4 120.1L598.4 108.6Q598.5 106.8 597.5 105.7Q596.6 104.7 595.0 104.7L595.0 104.7Q593.9 104.7 593.0 105.2Q592.2 105.7 591.7 106.6Q591.3 107.5 591.2 108.7ZM612.9 120.5L612.9 120.5Q611.0 120.5 609.5 119.8Q608.1 119.1 607.2 117.8Q606.4 116.5 606.4 114.6L606.4 114.6Q606.4 113.0 607.0 111.9Q607.6 110.7 608.6 110.1Q609.6 109.4 611.0 109.0Q612.3 108.7 613.7 108.6L613.7 108.6Q615.4 108.4 616.5 108.2Q617.5 108.1 618.0 107.7Q618.5 107.4 618.5 106.8L618.5 106.8L618.5 106.7Q618.5 105.5 617.7 104.8Q617.0 104.2 615.6 104.2L615.6 104.2Q614.1 104.2 613.2 104.8Q612.4 105.5 612.1 106.4L612.1 106.4L607.0 106.0Q607.4 104.2 608.6 102.9Q609.7 101.6 611.5 100.9Q613.2 100.2 615.6 100.2L615.6 100.2Q617.2 100.2 618.7 100.6Q620.2 101.0 621.4 101.8Q622.6 102.6 623.3 103.8Q623.9 105.1 623.9 106.8L623.9 106.8L623.9 120.1L618.8 120.1L618.8 117.4L618.6 117.4Q618.1 118.3 617.4 119.0Q616.6 119.7 615.4 120.1Q614.3 120.5 612.9 120.5ZM614.4 116.7L614.4 116.7Q615.6 116.7 616.6 116.2Q617.5 115.7 618.0 114.9Q618.5 114.1 618.5 113.1L618.5 113.1L618.5 111.0Q618.3 111.2 617.8 111.3Q617.4 111.4 616.8 111.5Q616.3 111.6 615.7 111.7Q615.2 111.8 614.7 111.9L614.7 111.9Q613.8 112.0 613.1 112.3Q612.4 112.6 612.0 113.1Q611.6 113.7 611.6 114.4L611.6 114.4Q611.6 115.5 612.4 116.1Q613.2 116.7 614.4 116.7ZM632.7 108.7L632.7 108.7L632.7 120.1L627.3 120.1L627.3 100.5L632.5 100.5L632.5 103.9L632.7 103.9Q633.3 102.2 634.9 101.2Q636.4 100.2 638.6 100.2L638.6 100.2Q640.6 100.2 642.2 101.1Q643.7 102.0 644.5 103.6Q645.4 105.3 645.4 107.6L645.4 107.6L645.4 120.1L639.9 120.1L639.9 108.6Q639.9 106.8 639.0 105.7Q638.1 104.7 636.4 104.7L636.4 104.7Q635.3 104.7 634.5 105.2Q633.7 105.7 633.2 106.6Q632.7 107.5 632.7 108.7ZM657.6 120.5L657.6 120.5Q654.6 120.5 652.4 119.2Q650.3 117.9 649.1 115.6Q648.0 113.3 648.0 110.3L648.0 110.3Q648.0 107.3 649.1 105.1Q650.3 102.8 652.5 101.5Q654.6 100.2 657.6 100.2L657.6 100.2Q660.2 100.2 662.1 101.1Q664.0 102.1 665.2 103.8Q666.3 105.4 666.4 107.7L666.4 107.7L661.3 107.7Q661.0 106.2 660.1 105.3Q659.2 104.4 657.7 104.4L657.7 104.4Q656.4 104.4 655.5 105.1Q654.5 105.8 654.0 107.1Q653.5 108.4 653.5 110.3L653.5 110.3Q653.5 112.2 654.0 113.5Q654.5 114.8 655.5 115.5Q656.4 116.2 657.7 116.2L657.7 116.2Q658.6 116.2 659.4 115.8Q660.1 115.4 660.6 114.7Q661.1 113.9 661.3 112.9L661.3 112.9L666.4 112.9Q666.3 115.1 665.2 116.9Q664.1 118.6 662.2 119.5Q660.2 120.5 657.6 120.5ZM674.4 120.1L669.0 120.1L669.0 100.5L674.4 100.5L674.4 120.1ZM671.7 97.9L671.7 97.9Q670.5 97.9 669.7 97.1Q668.8 96.3 668.8 95.2L668.8 95.2Q668.8 94.0 669.7 93.2Q670.5 92.4 671.7 92.4L671.7 92.4Q672.9 92.4 673.8 93.2Q674.7 94.0 674.7 95.2L674.7 95.2Q674.7 96.3 673.8 97.1Q672.9 97.9 671.7 97.9ZM683.5 120.5L683.5 120.5Q681.6 120.5 680.1 119.8Q678.7 119.1 677.8 117.8Q677.0 116.5 677.0 114.6L677.0 114.6Q677.0 113.0 677.6 111.9Q678.2 110.7 679.2 110.1Q680.2 109.4 681.6 109.0Q682.9 108.7 684.3 108.6L684.3 108.6Q686.1 108.4 687.1 108.2Q688.2 108.1 688.6 107.7Q689.1 107.4 689.1 106.8L689.1 106.8L689.1 106.7Q689.1 105.5 688.3 104.8Q687.6 104.2 686.2 104.2L686.2 104.2Q684.7 104.2 683.8 104.8Q683.0 105.5 682.7 106.4L682.7 106.4L677.7 106.0Q678.0 104.2 679.2 102.9Q680.3 101.6 682.1 100.9Q683.9 100.2 686.2 100.2L686.2 100.2Q687.8 100.2 689.4 100.6Q690.9 101.0 692.0 101.8Q693.2 102.6 693.9 103.8Q694.5 105.1 694.5 106.8L694.5 106.8L694.5 120.1L689.4 120.1L689.4 117.4L689.2 117.4Q688.8 118.3 688.0 119.0Q687.2 119.7 686.1 120.1Q684.9 120.5 683.5 120.5ZM685.0 116.7L685.0 116.7Q686.2 116.7 687.2 116.2Q688.1 115.7 688.6 114.9Q689.1 114.1 689.1 113.1L689.1 113.1L689.1 111.0Q688.9 111.2 688.4 111.3Q688.0 111.4 687.5 111.5Q686.9 111.6 686.4 111.7Q685.8 111.8 685.4 111.9L685.4 111.9Q684.4 112.0 683.7 112.3Q683.0 112.6 682.6 113.1Q682.2 113.7 682.2 114.4L682.2 114.4Q682.2 115.5 683.0 116.1Q683.8 116.7 685.0 116.7ZM697.9 93.9L703.3 93.9L703.3 120.1L697.9 120.1L697.9 93.9Z M290.7 160.1L290.7 133.9L297.5 133.9L304.8 151.5L305.1 151.5L312.3 133.9L319.1 133.9L319.1 160.1L313.7 160.1L313.7 143.0L313.5 143.0L306.7 160.0L303.1 160.0L296.3 143.0L296.1 143.0L296.1 160.1L290.7 160.1ZM328.2 160.5L328.2 160.5Q326.4 160.5 324.9 159.8Q323.4 159.1 322.6 157.8Q321.7 156.5 321.7 154.6L321.7 154.6Q321.7 153.0 322.3 151.9Q322.9 150.7 324.0 150.1Q325.0 149.4 326.3 149.0Q327.6 148.7 329.1 148.6L329.1 148.6Q330.8 148.4 331.9 148.2Q332.9 148.1 333.4 147.7Q333.9 147.4 333.9 146.8L333.9 146.8L333.9 146.7Q333.9 145.5 333.1 144.8Q332.3 144.2 330.9 144.2L330.9 144.2Q329.5 144.2 328.6 144.8Q327.7 145.5 327.5 146.4L327.5 146.4L322.4 146.0Q322.8 144.2 323.9 142.9Q325.0 141.6 326.8 140.9Q328.6 140.2 331.0 140.2L331.0 140.2Q332.6 140.2 334.1 140.6Q335.6 141.0 336.8 141.8Q337.9 142.6 338.6 143.8Q339.3 145.1 339.3 146.8L339.3 146.8L339.3 160.1L334.1 160.1L334.1 157.4L334.0 157.4Q333.5 158.3 332.7 159.0Q331.9 159.7 330.8 160.1Q329.7 160.5 328.2 160.5ZM329.8 156.7L329.8 156.7Q331.0 156.7 331.9 156.2Q332.8 155.7 333.4 154.9Q333.9 154.1 333.9 153.1L333.9 153.1L333.9 151.0Q333.6 151.2 333.2 151.3Q332.8 151.4 332.2 151.5Q331.7 151.6 331.1 151.7Q330.6 151.8 330.1 151.9L330.1 151.9Q329.2 152.0 328.4 152.3Q327.7 152.6 327.3 153.1Q326.9 153.7 326.9 154.4L326.9 154.4Q326.9 155.5 327.7 156.1Q328.6 156.7 329.8 156.7ZM348.1 148.7L348.1 148.7L348.1 160.1L342.6 160.1L342.6 140.5L347.8 140.5L347.8 143.9L348.1 143.9Q348.7 142.2 350.2 141.2Q351.8 140.2 354.0 140.2L354.0 140.2Q356.0 140.2 357.5 141.1Q359.0 142.0 359.9 143.6Q360.7 145.3 360.7 147.6L360.7 147.6L360.7 160.1L355.3 160.1L355.3 148.6Q355.3 146.8 354.4 145.7Q353.4 144.7 351.8 144.7L351.8 144.7Q350.7 144.7 349.9 145.2Q349.0 145.7 348.6 146.6Q348.1 147.5 348.1 148.7ZM369.7 160.5L369.7 160.5Q367.8 160.5 366.4 159.8Q364.9 159.1 364.0 157.8Q363.2 156.5 363.2 154.6L363.2 154.6Q363.2 153.0 363.8 151.9Q364.4 150.7 365.4 150.1Q366.5 149.4 367.8 149.0Q369.1 148.7 370.6 148.6L370.6 148.6Q372.3 148.4 373.3 148.2Q374.4 148.1 374.9 147.7Q375.3 147.4 375.3 146.8L375.3 146.8L375.3 146.7Q375.3 145.5 374.6 144.8Q373.8 144.2 372.4 144.2L372.4 144.2Q370.9 144.2 370.1 144.8Q369.2 145.5 368.9 146.4L368.9 146.4L363.9 146.0Q364.3 144.2 365.4 142.9Q366.5 141.6 368.3 140.9Q370.1 140.2 372.4 140.2L372.4 140.2Q374.1 140.2 375.6 140.6Q377.1 141.0 378.3 141.8Q379.4 142.6 380.1 143.8Q380.8 145.1 380.8 146.8L380.8 146.8L380.8 160.1L375.6 160.1L375.6 157.4L375.5 157.4Q375.0 158.3 374.2 159.0Q373.4 159.7 372.3 160.1Q371.2 160.5 369.7 160.5ZM371.3 156.7L371.3 156.7Q372.5 156.7 373.4 156.2Q374.3 155.7 374.8 154.9Q375.4 154.1 375.4 153.1L375.4 153.1L375.4 151.0Q375.1 151.2 374.7 151.3Q374.2 151.4 373.7 151.5Q373.1 151.6 372.6 151.7Q372.0 151.8 371.6 151.9L371.6 151.9Q370.6 152.0 369.9 152.3Q369.2 152.6 368.8 153.1Q368.4 153.7 368.4 154.4L368.4 154.4Q368.4 155.5 369.2 156.1Q370.0 156.7 371.3 156.7ZM393.0 167.9L393.0 167.9Q390.3 167.9 388.4 167.1Q386.5 166.4 385.4 165.2Q384.3 163.9 384.0 162.4L384.0 162.4L389.0 161.7Q389.2 162.3 389.7 162.8Q390.2 163.3 391.1 163.6Q391.9 164.0 393.1 164.0L393.1 164.0Q394.9 164.0 396.0 163.1Q397.2 162.2 397.2 160.2L397.2 160.2L397.2 156.6L396.9 156.6Q396.6 157.4 395.9 158.2Q395.2 158.9 394.0 159.3Q392.9 159.8 391.3 159.8L391.3 159.8Q389.1 159.8 387.3 158.8Q385.5 157.8 384.4 155.6Q383.4 153.5 383.4 150.2L383.4 150.2Q383.4 146.9 384.5 144.7Q385.6 142.4 387.4 141.3Q389.2 140.2 391.3 140.2L391.3 140.2Q393.0 140.2 394.1 140.8Q395.2 141.3 395.9 142.1Q396.6 143.0 396.9 143.8L396.9 143.8L397.1 143.8L397.1 140.5L402.6 140.5L402.6 160.3Q402.6 162.8 401.3 164.5Q400.1 166.2 397.9 167.0Q395.8 167.9 393.0 167.9ZM393.1 155.7L393.1 155.7Q394.4 155.7 395.3 155.1Q396.2 154.4 396.7 153.2Q397.2 151.9 397.2 150.2L397.2 150.2Q397.2 148.5 396.7 147.2Q396.2 145.9 395.3 145.2Q394.4 144.5 393.1 144.5L393.1 144.5Q391.7 144.5 390.8 145.3Q389.9 146.0 389.4 147.3Q388.9 148.5 388.9 150.2L388.9 150.2Q388.9 151.9 389.4 153.1Q389.9 154.4 390.8 155.0Q391.7 155.7 393.1 155.7ZM415.0 160.5L415.0 160.5Q411.9 160.5 409.7 159.2Q407.6 158.0 406.4 155.7Q405.2 153.5 405.2 150.4L405.2 150.4Q405.2 147.3 406.4 145.0Q407.6 142.8 409.7 141.5Q411.8 140.2 414.7 140.2L414.7 140.2Q416.7 140.2 418.4 140.8Q420.0 141.4 421.3 142.7Q422.6 143.9 423.3 145.8Q424.0 147.7 424.0 150.2L424.0 150.2L424.0 151.7L407.4 151.7L407.4 148.3L418.8 148.3Q418.8 147.1 418.3 146.2Q417.8 145.3 416.9 144.8Q416.0 144.3 414.8 144.3L414.8 144.3Q413.6 144.3 412.6 144.8Q411.7 145.4 411.1 146.4Q410.6 147.3 410.6 148.5L410.6 148.5L410.6 151.7Q410.6 153.1 411.1 154.2Q411.7 155.3 412.7 155.8Q413.7 156.4 415.0 156.4L415.0 156.4Q415.9 156.4 416.7 156.2Q417.5 155.9 418.0 155.4Q418.5 154.9 418.8 154.1L418.8 154.1L423.8 154.5Q423.5 156.3 422.3 157.6Q421.1 159.0 419.2 159.7Q417.4 160.5 415.0 160.5ZM432.1 160.1L426.6 160.1L426.6 140.5L431.8 140.5L431.8 143.9L432.0 143.9Q432.7 142.2 434.1 141.2Q435.5 140.2 437.5 140.2L437.5 140.2Q439.5 140.2 440.9 141.2Q442.4 142.2 442.8 143.9L442.8 143.9L443.0 143.9Q443.6 142.2 445.2 141.2Q446.8 140.2 449.0 140.2L449.0 140.2Q451.7 140.2 453.4 141.9Q455.2 143.7 455.2 146.9L455.2 146.9L455.2 160.1L449.7 160.1L449.7 148.0Q449.7 146.3 448.8 145.5Q448.0 144.7 446.7 144.7L446.7 144.7Q445.2 144.7 444.4 145.6Q443.5 146.6 443.5 148.1L443.5 148.1L443.5 160.1L438.3 160.1L438.3 147.8Q438.3 146.4 437.4 145.5Q436.6 144.7 435.3 144.7L435.3 144.7Q434.4 144.7 433.6 145.1Q432.9 145.6 432.5 146.4Q432.1 147.2 432.1 148.3L432.1 148.3L432.1 160.1ZM467.5 160.5L467.5 160.5Q464.5 160.5 462.3 159.2Q460.1 158.0 458.9 155.7Q457.8 153.5 457.8 150.4L457.8 150.4Q457.8 147.3 458.9 145.0Q460.1 142.8 462.2 141.5Q464.4 140.2 467.3 140.2L467.3 140.2Q469.2 140.2 470.9 140.8Q472.6 141.4 473.8 142.7Q475.1 143.9 475.8 145.8Q476.5 147.7 476.5 150.2L476.5 150.2L476.5 151.7L459.9 151.7L459.9 148.3L471.4 148.3Q471.4 147.1 470.9 146.2Q470.4 145.3 469.5 144.8Q468.6 144.3 467.4 144.3L467.4 144.3Q466.1 144.3 465.2 144.8Q464.2 145.4 463.7 146.4Q463.1 147.3 463.1 148.5L463.1 148.5L463.1 151.7Q463.1 153.1 463.7 154.2Q464.2 155.3 465.2 155.8Q466.2 156.4 467.6 156.4L467.6 156.4Q468.5 156.4 469.2 156.2Q470.0 155.9 470.5 155.4Q471.1 154.9 471.4 154.1L471.4 154.1L476.4 154.5Q476.0 156.3 474.8 157.6Q473.6 159.0 471.8 159.7Q469.9 160.5 467.5 160.5ZM484.6 148.7L484.6 148.7L484.6 160.1L479.2 160.1L479.2 140.5L484.4 140.5L484.4 143.9L484.6 143.9Q485.2 142.2 486.8 141.2Q488.3 140.2 490.5 140.2L490.5 140.2Q492.5 140.2 494.1 141.1Q495.6 142.0 496.4 143.6Q497.3 145.3 497.3 147.6L497.3 147.6L497.3 160.1L491.8 160.1L491.8 148.6Q491.8 146.8 490.9 145.7Q490.0 144.7 488.3 144.7L488.3 144.7Q487.2 144.7 486.4 145.2Q485.6 145.7 485.1 146.6Q484.6 147.5 484.6 148.7ZM499.3 140.5L511.1 140.5L511.1 144.5L499.3 144.5L499.3 140.5ZM502.0 154.8L502.0 135.8L507.4 135.8L507.4 154.1Q507.4 154.8 507.6 155.2Q507.9 155.6 508.3 155.8Q508.7 156.0 509.2 156.0L509.2 156.0Q509.6 156.0 510.0 155.9Q510.4 155.8 510.6 155.8L510.6 155.8L511.5 159.8Q511.0 160.0 510.3 160.1Q509.6 160.3 508.5 160.4L508.5 160.4Q506.5 160.4 505.1 159.8Q503.6 159.2 502.8 158.0Q501.9 156.7 502.0 154.8L502.0 154.8Z "/><mask id="satori_om-id-0-1"><rect x="120" y="207" width="560" height="32" fill="#fff"/></mask><mask id="satori_om-id-0-1-0"><rect x="120" y="207" width="560" height="32" fill="#fff"/></mask><path fill="#4f46e5" d="M126.9 225.6L120.5 214.3L124.6 214.3L128.6 221.8L128.8 221.8L132.8 214.3L136.9 214.3L130.5 225.6L130.5 231.7L126.9 231.7L126.9 225.6ZM141.4 232.0L141.4 232.0Q139.4 232.0 138.0 231.1Q136.6 230.3 135.8 228.8Q135.0 227.2 135.0 225.2L135.0 225.2Q135.0 223.2 135.8 221.7Q136.6 220.2 138.0 219.3Q139.4 218.5 141.4 218.5L141.4 218.5Q143.4 218.5 144.9 219.3Q146.3 220.2 147.1 221.7Q147.9 223.2 147.9 225.2L147.9 225.2Q147.9 227.2 147.1 228.8Q146.3 230.3 144.9 231.1Q143.4 232.0 141.4 232.0ZM141.4 229.2L141.4 229.2Q142.4 229.2 143.0 228.7Q143.6 228.1 143.9 227.2Q144.2 226.3 144.2 225.2L144.2 225.2Q144.2 224.1 143.9 223.2Q143.6 222.3 143.0 221.8Q142.4 221.2 141.4 221.2L141.4 221.2Q140.5 221.2 139.9 221.8Q139.3 222.3 139.0 223.2Q138.7 224.1 138.7 225.2L138.7 225.2Q138.7 226.3 139.0 227.2Q139.3 228.1 139.9 228.7Q140.5 229.2 141.4 229.2ZM158.0 226.2L158.0 226.2L158.0 218.6L161.7 218.6L161.7 231.7L158.2 231.7L158.2 229.3L158.0 229.3Q157.6 230.5 156.6 231.2Q155.5 231.9 154.1 231.9L154.1 231.9Q152.8 231.9 151.8 231.3Q150.8 230.7 150.2 229.6Q149.7 228.5 149.6 227.0L149.6 227.0L149.6 218.6L153.3 218.6L153.3 226.3Q153.3 227.5 153.9 228.2Q154.5 228.8 155.5 228.8L155.5 228.8Q156.2 228.8 156.8 228.5Q157.3 228.2 157.7 227.6Q158.0 227.0 158.0 226.2ZM167.6 231.7L164.0 231.7L164.0 218.6L167.5 218.6L167.5 220.9L167.6 220.9Q168.0 219.7 168.8 219.1Q169.7 218.4 170.8 218.4L170.8 218.4Q171.0 218.4 171.4 218.5Q171.7 218.5 171.9 218.6L171.9 218.6L171.9 221.8Q171.7 221.7 171.2 221.7Q170.8 221.6 170.4 221.6L170.4 221.6Q169.6 221.6 168.9 221.9Q168.3 222.3 168.0 222.9Q167.6 223.5 167.6 224.3L167.6 224.3L167.6 231.7Z M196.3 219.9L192.5 219.9Q192.3 219.3 192 218.8Q191.7 218.3 191.2 218.0Q190.7 217.7 190.2 217.5Q189.6 217.3 188.8 217.3L188.8 217.3Q187.5 217.3 186.5 218.0Q185.5 218.6 184.9 219.9Q184.4 221.2 184.4 223.0L184.4 223.0Q184.4 224.8 184.9 226.1Q185.5 227.4 186.5 228.0Q187.5 228.7 188.9 228.7L188.9 228.7Q190.1 228.7 191.0 228.3Q191.9 227.8 192.4 227.0Q192.9 226.2 192.9 225.1L192.9 225.1L193.6 225.2L189.1 225.2L189.1 222.4L196.4 222.4L196.4 224.6Q196.4 226.9 195.4 228.5Q194.5 230.2 192.8 231.1Q191.1 232.0 188.9 232.0L188.9 232.0Q186.4 232.0 184.6 230.9Q182.7 229.8 181.7 227.8Q180.6 225.8 180.6 223.0L180.6 223.0Q180.6 220.9 181.2 219.2Q181.9 217.6 183.0 216.4Q184.1 215.2 185.6 214.6Q187.1 214.0 188.8 214.0L188.8 214.0Q190.3 214.0 191.5 214.5Q192.8 214.9 193.8 215.7Q194.8 216.5 195.4 217.5Q196.1 218.6 196.3 219.9L196.3 219.9ZM202.2 232.0L202.2 232.0Q201.0 232.0 200.0 231.5Q199.0 231.1 198.5 230.2Q197.9 229.4 197.9 228.1L197.9 228.1Q197.9 227.0 198.3 226.2Q198.7 225.5 199.4 225.0Q200.1 224.6 201.0 224.4Q201.8 224.1 202.8 224.0L202.8 224.0Q204.0 223.9 204.7 223.8Q205.4 223.7 205.7 223.5Q206.0 223.3 206.0 222.9L206.0 222.9L206.0 222.8Q206.0 222.0 205.5 221.6Q205.0 221.1 204.0 221.1L204.0 221.1Q203.1 221.1 202.5 221.5Q201.9 222.0 201.7 222.6L201.7 222.6L198.4 222.4Q198.6 221.2 199.4 220.3Q200.1 219.4 201.3 218.9Q202.5 218.5 204.1 218.5L204.1 218.5Q205.2 218.5 206.2 218.7Q207.2 219.0 207.9 219.5Q208.7 220.1 209.2 220.9Q209.6 221.7 209.6 222.9L209.6 222.9L209.6 231.7L206.2 231.7L206.2 229.9L206.1 229.9Q205.8 230.5 205.2 231.0Q204.7 231.5 204.0 231.7Q203.2 232.0 202.2 232.0ZM203.3 229.5L203.3 229.5Q204.1 229.5 204.7 229.1Q205.3 228.8 205.7 228.3Q206.0 227.7 206.0 227.0L206.0 227.0L206.0 225.7Q205.8 225.8 205.6 225.9Q205.3 225.9 204.9 226.0Q204.5 226.1 204.2 226.1Q203.8 226.2 203.5 226.2L203.5 226.2Q202.9 226.3 202.4 226.5Q201.9 226.8 201.6 227.1Q201.4 227.4 201.4 228.0L201.4 228.0Q201.4 228.7 201.9 229.1Q202.5 229.5 203.3 229.5ZM210.9 218.6L218.8 218.6L218.8 221.4L210.9 221.4L210.9 218.6ZM212.7 228.2L212.7 215.5L216.3 215.5L216.3 227.7Q216.3 228.2 216.5 228.5Q216.6 228.8 216.9 228.9Q217.2 229.0 217.6 229.0L217.6 229.0Q217.8 229.0 218.1 228.9Q218.3 228.9 218.5 228.9L218.5 228.9L219.0 231.6Q218.8 231.7 218.3 231.8Q217.8 231.9 217.1 231.9L217.1 231.9Q215.8 232.0 214.8 231.6Q213.8 231.2 213.2 230.3Q212.7 229.5 212.7 228.2L212.7 228.2ZM226.4 232.0L226.4 232.0Q224.4 232.0 222.9 231.2Q221.5 230.3 220.7 228.8Q219.9 227.3 219.9 225.2L219.9 225.2Q219.9 223.2 220.7 221.7Q221.5 220.2 222.9 219.3Q224.3 218.5 226.3 218.5L226.3 218.5Q227.5 218.5 228.7 218.9Q229.8 219.3 230.6 220.1Q231.5 220.9 231.9 222.2Q232.4 223.4 232.4 225.1L232.4 225.1L232.4 226.1L221.4 226.1L221.4 223.9L229.0 223.9Q229.0 223.1 228.6 222.5Q228.3 221.9 227.7 221.5Q227.1 221.2 226.3 221.2L226.3 221.2Q225.5 221.2 224.8 221.6Q224.2 221.9 223.9 222.6Q223.5 223.2 223.5 224.0L223.5 224.0L223.5 226.1Q223.5 227.1 223.9 227.8Q224.2 228.5 224.9 228.9Q225.5 229.3 226.5 229.3L226.5 229.3Q227.1 229.3 227.6 229.1Q228.1 228.9 228.4 228.6Q228.8 228.3 229.0 227.8L229.0 227.8L232.3 228.0Q232.1 229.2 231.3 230.1Q230.5 231.0 229.3 231.5Q228.0 232.0 226.4 232.0ZM240.5 231.7L236.7 231.7L233.1 218.6L236.8 218.6L238.8 227.4L238.9 227.4L241.0 218.6L244.6 218.6L246.8 227.4L246.9 227.4L248.9 218.6L252.5 218.6L249.0 231.7L245.2 231.7L242.9 223.5L242.7 223.5L240.5 231.7ZM257.6 232.0L257.6 232.0Q256.4 232.0 255.4 231.5Q254.4 231.1 253.8 230.2Q253.3 229.4 253.3 228.1L253.3 228.1Q253.3 227.0 253.7 226.2Q254.1 225.5 254.8 225.0Q255.4 224.6 256.3 224.4Q257.2 224.1 258.2 224.0L258.2 224.0Q259.3 223.9 260.0 223.8Q260.7 223.7 261.0 223.5Q261.3 223.3 261.3 222.9L261.3 222.9L261.3 222.8Q261.3 222.0 260.8 221.6Q260.3 221.1 259.4 221.1L259.4 221.1Q258.4 221.1 257.8 221.5Q257.3 222.0 257.1 222.6L257.1 222.6L253.7 222.4Q254.0 221.2 254.7 220.3Q255.5 219.4 256.7 218.9Q257.9 218.5 259.4 218.5L259.4 218.5Q260.5 218.5 261.5 218.7Q262.5 219.0 263.3 219.5Q264.1 220.1 264.5 220.9Q265.0 221.7 265.0 222.9L265.0 222.9L265.0 231.7L261.5 231.7L261.5 229.9L261.4 229.9Q261.1 230.5 260.6 231.0Q260.1 231.5 259.3 231.7Q258.6 232.0 257.6 232.0ZM258.6 229.5L258.6 229.5Q259.4 229.5 260.1 229.1Q260.7 228.8 261.0 228.3Q261.4 227.7 261.4 227.0L261.4 227.0L261.4 225.7Q261.2 225.8 260.9 225.9Q260.6 225.9 260.3 226.0Q259.9 226.1 259.5 226.1Q259.2 226.2 258.9 226.2L258.9 226.2Q258.2 226.3 257.7 226.5Q257.3 226.8 257.0 227.1Q256.7 227.4 256.7 228.0L256.7 228.0Q256.7 228.7 257.3 229.1Q257.8 229.5 258.6 229.5ZM269.0 236.6L269.0 236.6Q268.3 236.6 267.7 236.5Q267.1 236.4 266.7 236.3L266.7 236.3L267.5 233.6Q268.1 233.7 268.7 233.8Q269.2 233.8 269.5 233.5Q269.9 233.3 270.2 232.7L270.2 232.7L270.4 232.1L265.7 218.6L269.5 218.6L272.2 228.3L272.3 228.3L275.1 218.6L278.9 218.6L273.8 233.1Q273.5 234.2 272.8 235.0Q272.2 235.8 271.3 236.2Q270.3 236.6 269.0 236.6Z M284.9 218.6L292.8 218.6L292.8 221.4L284.9 221.4L284.9 218.6ZM286.7 228.2L286.7 215.5L290.4 215.5L290.4 227.7Q290.4 228.2 290.5 228.5Q290.7 228.8 291.0 228.9Q291.2 229.0 291.6 229.0L291.6 229.0Q291.9 229.0 292.1 228.9Q292.4 228.9 292.5 228.9L292.5 228.9L293.1 231.6Q292.8 231.7 292.3 231.8Q291.8 231.9 291.1 231.9L291.1 231.9Q289.8 232.0 288.8 231.6Q287.8 231.2 287.3 230.3Q286.7 229.5 286.7 228.2L286.7 228.2ZM300.4 232.0L300.4 232.0Q298.4 232.0 296.9 231.1Q295.5 230.3 294.7 228.8Q293.9 227.2 293.9 225.2L293.9 225.2Q293.9 223.2 294.7 221.7Q295.5 220.2 296.9 219.3Q298.4 218.5 300.4 218.5L300.4 218.5Q302.4 218.5 303.8 219.3Q305.2 220.2 306.0 221.7Q306.8 223.2 306.8 225.2L306.8 225.2Q306.8 227.2 306.0 228.8Q305.2 230.3 303.8 231.1Q302.4 232.0 300.4 232.0ZM300.4 229.2L300.4 229.2Q301.3 229.2 301.9 228.7Q302.5 228.1 302.8 227.2Q303.1 226.3 303.1 225.2L303.1 225.2Q303.1 224.1 302.8 223.2Q302.5 222.3 301.9 221.8Q301.3 221.2 300.4 221.2L300.4 221.2Q299.5 221.2 298.9 221.8Q298.2 222.3 297.9 223.2Q297.6 224.1 297.6 225.2L297.6 225.2Q297.6 226.3 297.9 227.2Q298.2 228.1 298.9 228.7Q299.5 229.2 300.4 229.2Z M325.5 231.7L313.8 231.7L313.8 214.3L325.5 214.3L325.5 217.3L317.4 217.3L317.4 221.5L324.9 221.5L324.9 224.5L317.4 224.5L317.4 228.7L325.5 228.7L325.5 231.7ZM326.7 218.6L334.8 218.6L334.8 221.4L326.7 221.4L326.7 218.6ZM332.2 231.7L328.6 231.7L328.6 217.7Q328.6 216.3 329.2 215.3Q329.7 214.4 330.7 213.9Q331.7 213.5 332.9 213.5L332.9 213.5Q333.7 213.5 334.4 213.6Q335.1 213.7 335.5 213.8L335.5 213.8L334.8 216.5Q334.6 216.5 334.3 216.4Q334.0 216.4 333.6 216.4L333.6 216.4Q332.8 216.4 332.5 216.7Q332.2 217.1 332.2 217.8L332.2 217.8L332.2 231.7ZM335.4 218.6L343.5 218.6L343.5 221.4L335.4 221.4L335.4 218.6ZM340.9 231.7L337.3 231.7L337.3 217.7Q337.3 216.3 337.8 215.3Q338.4 214.4 339.3 213.9Q340.3 213.5 341.5 213.5L341.5 213.5Q342.4 213.5 343.1 213.6Q343.8 213.7 344.1 213.8L344.1 213.8L343.5 216.5Q343.3 216.5 342.9 216.4Q342.6 216.4 342.3 216.4L342.3 216.4Q341.5 216.4 341.2 216.7Q340.9 217.1 340.9 217.8L340.9 217.8L340.9 231.7ZM350.6 232.0L350.6 232.0Q348.6 232.0 347.1 231.1Q345.7 230.3 344.9 228.8Q344.1 227.2 344.1 225.2L344.1 225.2Q344.1 223.2 344.9 221.7Q345.7 220.2 347.1 219.3Q348.6 218.5 350.6 218.5L350.6 218.5Q352.5 218.5 354.0 219.3Q355.4 220.2 356.2 221.7Q357.0 223.2 357.0 225.2L357.0 225.2Q357.0 227.2 356.2 228.8Q355.4 230.3 354.0 231.1Q352.5 232.0 350.6 232.0ZM350.6 229.2L350.6 229.2Q351.5 229.2 352.1 228.7Q352.7 228.1 353.0 227.2Q353.3 226.3 353.3 225.2L353.3 225.2Q353.3 224.1 353.0 223.2Q352.7 222.3 352.1 221.8Q351.5 221.2 350.6 221.2L350.6 221.2Q349.7 221.2 349.0 221.8Q348.4 222.3 348.1 223.2Q347.8 224.1 347.8 225.2L347.8 225.2Q347.8 226.3 348.1 227.2Q348.4 228.1 349.0 228.7Q349.7 229.2 350.6 229.2ZM362.4 231.7L358.8 231.7L358.8 218.6L362.3 218.6L362.3 220.9L362.4 220.9Q362.8 219.7 363.6 219.1Q364.5 218.4 365.6 218.4L365.6 218.4Q365.8 218.4 366.2 218.5Q366.5 218.5 366.7 218.6L366.7 218.6L366.7 221.8Q366.5 221.7 366.0 221.7Q365.5 221.6 365.2 221.6L365.2 221.6Q364.4 221.6 363.7 221.9Q363.1 222.3 362.8 222.9Q362.4 223.5 362.4 224.3L362.4 224.3L362.4 231.7ZM367.7 218.6L375.6 218.6L375.6 221.4L367.7 221.4L367.7 218.6ZM369.5 228.2L369.5 215.5L373.1 215.5L373.1 227.7Q373.1 228.2 373.3 228.5Q373.4 228.8 373.7 228.9Q374.0 229.0 374.4 229.0L374.4 229.0Q374.6 229.0 374.9 228.9Q375.1 228.9 375.3 228.9L375.3 228.9L375.8 231.6Q375.6 231.7 375.1 231.8Q374.6 231.9 373.9 231.9L373.9 231.9Q372.6 232.0 371.6 231.6Q370.6 231.2 370.0 230.3Q369.5 229.5 369.5 228.2L369.5 228.2ZM377.6 214.3L381.3 214.3L381.3 231.7L377.6 231.7L377.6 214.3ZM389.5 232.0L389.5 232.0Q387.5 232.0 386.0 231.2Q384.6 230.3 383.8 228.8Q383.0 227.3 383.0 225.2L383.0 225.2Q383.0 223.2 383.8 221.7Q384.6 220.2 386.0 219.3Q387.4 218.5 389.4 218.5L389.4 218.5Q390.7 218.5 391.8 218.9Q392.9 219.3 393.8 220.1Q394.6 220.9 395.1 222.2Q395.5 223.4 395.5 225.1L395.5 225.1L395.5 226.1L384.5 226.1L384.5 223.9L392.1 223.9Q392.1 223.1 391.8 222.5Q391.4 221.9 390.8 221.5Q390.2 221.2 389.4 221.2L389.4 221.2Q388.6 221.2 388.0 221.6Q387.3 221.9 387.0 222.6Q386.6 223.2 386.6 224.0L386.6 224.0L386.6 226.1Q386.6 227.1 387.0 227.8Q387.3 228.5 388.0 228.9Q388.7 229.3 389.6 229.3L389.6 229.3Q390.2 229.3 390.7 229.1Q391.2 228.9 391.5 228.6Q391.9 228.3 392.1 227.8L392.1 227.8L395.5 228.0Q395.2 229.2 394.4 230.1Q393.6 231.0 392.4 231.5Q391.1 232.0 389.5 232.0ZM408.2 222.4L408.2 222.4L404.9 222.6Q404.8 222.1 404.5 221.8Q404.2 221.5 403.8 221.2Q403.3 221.0 402.7 221.0L402.7 221.0Q401.8 221.0 401.3 221.4Q400.7 221.7 400.7 222.3L400.7 222.3Q400.7 222.8 401.0 223.1Q401.4 223.5 402.3 223.6L402.3 223.6L404.7 224.1Q406.6 224.5 407.6 225.4Q408.5 226.3 408.5 227.7L408.5 227.7Q408.5 229.0 407.7 229.9Q407.0 230.9 405.7 231.4Q404.4 232.0 402.7 232.0L402.7 232.0Q400.1 232.0 398.5 230.9Q397.0 229.8 396.7 227.9L396.7 227.9L400.3 227.7Q400.5 228.5 401.1 229.0Q401.7 229.4 402.7 229.4L402.7 229.4Q403.6 229.4 404.2 229.0Q404.8 228.6 404.8 228.0L404.8 228.0Q404.8 227.5 404.4 227.2Q404.0 226.9 403.1 226.7L403.1 226.7L400.9 226.3Q398.9 225.9 398.0 225.0Q397.1 224.0 397.1 222.5L397.1 222.5Q397.1 221.3 397.8 220.4Q398.4 219.5 399.7 219.0Q400.9 218.5 402.6 218.5L402.6 218.5Q405.1 218.5 406.5 219.5Q408.0 220.6 408.2 222.4ZM421.1 222.4L421.1 222.4L417.7 222.6Q417.7 222.1 417.4 221.8Q417.1 221.5 416.6 221.2Q416.2 221.0 415.6 221.0L415.6 221.0Q414.7 221.0 414.1 221.4Q413.6 221.7 413.6 222.3L413.6 222.3Q413.6 222.8 413.9 223.1Q414.3 223.5 415.2 223.6L415.2 223.6L417.6 224.1Q419.5 224.5 420.4 225.4Q421.4 226.3 421.4 227.7L421.4 227.7Q421.4 229.0 420.6 229.9Q419.9 230.9 418.6 231.4Q417.2 232.0 415.5 232.0L415.5 232.0Q412.9 232.0 411.4 230.9Q409.9 229.8 409.6 227.9L409.6 227.9L413.2 227.7Q413.3 228.5 414.0 229.0Q414.6 229.4 415.6 229.4L415.6 229.4Q416.5 229.4 417.1 229.0Q417.7 228.6 417.7 228.0L417.7 228.0Q417.7 227.5 417.3 227.2Q416.9 226.9 416.0 226.7L416.0 226.7L413.7 226.3Q411.8 225.9 410.9 225.0Q410.0 224.0 410.0 222.5L410.0 222.5Q410.0 221.3 410.6 220.4Q411.3 219.5 412.6 219.0Q413.8 218.5 415.5 218.5L415.5 218.5Q418.0 218.5 419.4 219.5Q420.8 220.6 421.1 222.4Z M431.3 231.7L427.6 231.7L427.6 214.3L439.2 214.3L439.2 217.3L431.3 217.3L431.3 221.5L438.4 221.5L438.4 224.5L431.3 224.5L431.3 231.7ZM444.6 231.7L441.0 231.7L441.0 218.6L444.6 218.6L444.6 231.7ZM442.8 216.9L442.8 216.9Q442.0 216.9 441.4 216.4Q440.9 215.9 440.9 215.1L440.9 215.1Q440.9 214.4 441.4 213.8Q442.0 213.3 442.8 213.3L442.8 213.3Q443.6 213.3 444.2 213.8Q444.8 214.4 444.8 215.1L444.8 215.1Q444.8 215.9 444.2 216.4Q443.6 216.9 442.8 216.9ZM450.6 224.2L450.6 224.2L450.6 231.7L446.9 231.7L446.9 218.6L450.4 218.6L450.4 220.9L450.5 220.9Q451.0 219.8 452.0 219.1Q453.0 218.5 454.5 218.5L454.5 218.5Q455.8 218.5 456.9 219.1Q457.9 219.7 458.4 220.8Q459.0 221.9 459.0 223.4L459.0 223.4L459.0 231.7L455.4 231.7L455.4 224.0Q455.4 222.8 454.8 222.2Q454.1 221.5 453.0 221.5L453.0 221.5Q452.3 221.5 451.7 221.8Q451.2 222.1 450.9 222.7Q450.6 223.3 450.6 224.2ZM465.0 232.0L465.0 232.0Q463.7 232.0 462.7 231.5Q461.8 231.1 461.2 230.2Q460.6 229.4 460.6 228.1L460.6 228.1Q460.6 227.0 461.0 226.2Q461.4 225.5 462.1 225.0Q462.8 224.6 463.7 224.4Q464.6 224.1 465.6 224.0L465.6 224.0Q466.7 223.9 467.4 223.8Q468.1 223.7 468.4 223.5Q468.7 223.3 468.7 222.9L468.7 222.9L468.7 222.8Q468.7 222.0 468.2 221.6Q467.7 221.1 466.8 221.1L466.8 221.1Q465.8 221.1 465.2 221.5Q464.6 222.0 464.5 222.6L464.5 222.6L461.1 222.4Q461.4 221.2 462.1 220.3Q462.9 219.4 464.0 218.9Q465.2 218.5 466.8 218.5L466.8 218.5Q467.9 218.5 468.9 218.7Q469.9 219.0 470.7 219.5Q471.5 220.1 471.9 220.9Q472.4 221.7 472.4 222.9L472.4 222.9L472.4 231.7L468.9 231.7L468.9 229.9L468.8 229.9Q468.5 230.5 468.0 231.0Q467.4 231.5 466.7 231.7Q466.0 232.0 465.0 232.0ZM466.0 229.5L466.0 229.5Q466.8 229.5 467.4 229.1Q468.1 228.8 468.4 228.3Q468.7 227.7 468.7 227.0L468.7 227.0L468.7 225.7Q468.6 225.8 468.3 225.9Q468.0 225.9 467.6 226.0Q467.3 226.1 466.9 226.1Q466.5 226.2 466.2 226.2L466.2 226.2Q465.6 226.3 465.1 226.5Q464.6 226.8 464.4 227.1Q464.1 227.4 464.1 228.0L464.1 228.0Q464.1 228.7 464.6 229.1Q465.2 229.5 466.0 229.5ZM478.2 224.2L478.2 224.2L478.2 231.7L474.6 231.7L474.6 218.6L478.0 218.6L478.0 220.9L478.2 220.9Q478.6 219.8 479.6 219.1Q480.7 218.5 482.1 218.5L482.1 218.5Q483.5 218.5 484.5 219.1Q485.5 219.7 486.1 220.8Q486.6 221.9 486.6 223.4L486.6 223.4L486.6 231.7L483.0 231.7L483.0 224.0Q483.0 222.8 482.4 222.2Q481.8 221.5 480.7 221.5L480.7 221.5Q480.0 221.5 479.4 221.8Q478.8 222.1 478.5 222.7Q478.2 223.3 478.2 224.2ZM494.8 232.0L494.8 232.0Q492.8 232.0 491.4 231.1Q489.9 230.3 489.1 228.7Q488.4 227.2 488.4 225.2L488.4 225.2Q488.4 223.2 489.2 221.7Q489.9 220.2 491.4 219.3Q492.8 218.5 494.8 218.5L494.8 218.5Q496.5 218.5 497.8 219.1Q499.1 219.7 499.8 220.8Q500.6 222.0 500.7 223.5L500.7 223.5L497.2 223.5Q497.1 222.5 496.5 221.9Q495.9 221.3 494.9 221.3L494.9 221.3Q494.0 221.3 493.4 221.8Q492.8 222.2 492.4 223.1Q492.1 223.9 492.1 225.2L492.1 225.2Q492.1 226.4 492.4 227.3Q492.8 228.2 493.4 228.7Q494.0 229.1 494.9 229.1L494.9 229.1Q495.5 229.1 496.0 228.9Q496.5 228.6 496.8 228.1Q497.1 227.6 497.2 226.9L497.2 226.9L500.7 226.9Q500.6 228.4 499.8 229.6Q499.1 230.7 497.8 231.3Q496.6 232.0 494.8 232.0ZM506.0 231.7L502.4 231.7L502.4 218.6L506.0 218.6L506.0 231.7ZM504.2 216.9L504.2 216.9Q503.4 216.9 502.8 216.4Q502.3 215.9 502.3 215.1L502.3 215.1Q502.3 214.4 502.8 213.8Q503.4 213.3 504.2 213.3L504.2 213.3Q505.0 213.3 505.6 213.8Q506.2 214.4 506.2 215.1L506.2 215.1Q506.2 215.9 505.6 216.4Q505.0 216.9 504.2 216.9ZM512.1 232.0L512.1 232.0Q510.8 232.0 509.8 231.5Q508.8 231.1 508.3 230.2Q507.7 229.4 507.7 228.1L507.7 228.1Q507.7 227.0 508.1 226.2Q508.5 225.5 509.2 225.0Q509.9 224.6 510.8 224.4Q511.7 224.1 512.6 224.0L512.6 224.0Q513.8 223.9 514.5 223.8Q515.2 223.7 515.5 223.5Q515.8 223.3 515.8 222.9L515.8 222.9L515.8 222.8Q515.8 222.0 515.3 221.6Q514.8 221.1 513.9 221.1L513.9 221.1Q512.9 221.1 512.3 221.5Q511.7 222.0 511.5 222.6L511.5 222.6L508.2 222.4Q508.4 221.2 509.2 220.3Q509.9 219.4 511.1 218.9Q512.3 218.5 513.9 218.5L513.9 218.5Q515.0 218.5 516.0 218.7Q517.0 219.0 517.7 219.5Q518.5 220.1 519.0 220.9Q519.4 221.7 519.4 222.9L519.4 222.9L519.4 231.7L516.0 231.7L516.0 229.9L515.9 229.9Q515.6 230.5 515.0 231.0Q514.5 231.5 513.8 231.7Q513.0 232.0 512.1 232.0ZM513.1 229.5L513.1 229.5Q513.9 229.5 514.5 229.1Q515.1 228.8 515.5 228.3Q515.8 227.7 515.8 227.0L515.8 227.0L515.8 225.7Q515.7 225.8 515.4 225.9Q515.1 225.9 514.7 226.0Q514.3 226.1 514.0 226.1Q513.6 226.2 513.3 226.2L513.3 226.2Q512.7 226.3 512.2 226.5Q511.7 226.8 511.4 227.1Q511.2 227.4 511.2 228.0L511.2 228.0Q511.2 228.7 511.7 229.1Q512.3 229.5 513.1 229.5ZM521.7 214.3L525.3 214.3L525.3 231.7L521.7 231.7L521.7 214.3Z M532.6 231.7L532.6 214.3L537.2 214.3L542.0 226L542.2 226L547.0 214.3L551.5 214.3L551.5 231.7L548.0 231.7L548.0 220.4L547.8 220.4L543.3 231.6L540.9 231.6L536.3 220.3L536.2 220.3L536.2 231.7L532.6 231.7ZM557.6 232.0L557.6 232.0Q556.4 232.0 555.4 231.5Q554.4 231.1 553.9 230.2Q553.3 229.4 553.3 228.1L553.3 228.1Q553.3 227.0 553.7 226.2Q554.1 225.5 554.8 225.0Q555.5 224.6 556.3 224.4Q557.2 224.1 558.2 224.0L558.2 224.0Q559.3 223.9 560.0 223.8Q560.7 223.7 561.1 223.5Q561.4 223.3 561.4 222.9L561.4 222.9L561.4 222.8Q561.4 222.0 560.9 221.6Q560.4 221.1 559.4 221.1L559.4 221.1Q558.4 221.1 557.9 221.5Q557.3 222.0 557.1 222.6L557.1 222.6L553.7 222.4Q554.0 221.2 554.8 220.3Q555.5 219.4 556.7 218.9Q557.9 218.5 559.4 218.5L559.4 218.5Q560.5 218.5 561.5 218.7Q562.5 219.0 563.3 219.5Q564.1 220.1 564.6 220.9Q565.0 221.7 565.0 222.9L565.0 222.9L565.0 231.7L561.6 231.7L561.6 229.9L561.5 229.9Q561.1 230.5 560.6 231.0Q560.1 231.5 559.3 231.7Q558.6 232.0 557.6 232.0ZM558.7 229.5L558.7 229.5Q559.5 229.5 560.1 229.1Q560.7 228.8 561.0 228.3Q561.4 227.7 561.4 227.0L561.4 227.0L561.4 225.7Q561.2 225.8 560.9 225.9Q560.6 225.9 560.3 226.0Q559.9 226.1 559.5 226.1Q559.2 226.2 558.9 226.2L558.9 226.2Q558.2 226.3 557.8 226.5Q557.3 226.8 557.0 227.1Q556.8 227.4 556.8 228.0L556.8 228.0Q556.8 228.7 557.3 229.1Q557.8 229.5 558.7 229.5ZM570.9 224.2L570.9 224.2L570.9 231.7L567.2 231.7L567.2 218.6L570.7 218.6L570.7 220.9L570.8 220.9Q571.3 219.8 572.3 219.1Q573.3 218.5 574.8 218.5L574.8 218.5Q576.1 218.5 577.2 219.1Q578.2 219.7 578.7 220.8Q579.3 221.9 579.3 223.4L579.3 223.4L579.3 231.7L575.7 231.7L575.7 224.0Q575.7 222.8 575.0 222.2Q574.4 221.5 573.3 221.5L573.3 221.5Q572.6 221.5 572.0 221.8Q571.5 222.1 571.2 222.7Q570.9 223.3 570.9 224.2ZM585.3 232.0L585.3 232.0Q584.0 232.0 583.0 231.5Q582.1 231.1 581.5 230.2Q580.9 229.4 580.9 228.1L580.9 228.1Q580.9 227.0 581.3 226.2Q581.7 225.5 582.4 225.0Q583.1 224.6 584.0 224.4Q584.9 224.1 585.9 224.0L585.9 224.0Q587.0 223.9 587.7 223.8Q588.4 223.7 588.7 223.5Q589.0 223.3 589.0 222.9L589.0 222.9L589.0 222.8Q589.0 222.0 588.5 221.6Q588.0 221.1 587.1 221.1L587.1 221.1Q586.1 221.1 585.5 221.5Q584.9 222.0 584.8 222.6L584.8 222.6L581.4 222.4Q581.7 221.2 582.4 220.3Q583.2 219.4 584.3 218.9Q585.5 218.5 587.1 218.5L587.1 218.5Q588.2 218.5 589.2 218.7Q590.2 219.0 591.0 219.5Q591.7 220.1 592.2 220.9Q592.7 221.7 592.7 222.9L592.7 222.9L592.7 231.7L589.2 231.7L589.2 229.9L589.1 229.9Q588.8 230.5 588.3 231.0Q587.7 231.5 587.0 231.7Q586.3 232.0 585.3 232.0ZM586.3 229.5L586.3 229.5Q587.1 229.5 587.7 229.1Q588.3 228.8 588.7 228.3Q589.0 227.7 589.0 227.0L589.0 227.0L589.0 225.7Q588.9 225.8 588.6 225.9Q588.3 225.9 587.9 226.0Q587.6 226.1 587.2 226.1Q586.8 226.2 586.5 226.2L586.5 226.2Q585.9 226.3 585.4 226.5Q584.9 226.8 584.7 227.1Q584.4 227.4 584.4 228.0L584.4 228.0Q584.4 228.7 584.9 229.1Q585.5 229.5 586.3 229.5ZM600.8 236.9L600.8 236.9Q599.0 236.9 597.8 236.4Q596.5 235.9 595.8 235.1Q595.0 234.3 594.8 233.3L594.8 233.3L598.1 232.8Q598.3 233.2 598.6 233.5Q599.0 233.9 599.5 234.1Q600.1 234.3 600.9 234.3L600.9 234.3Q602.0 234.3 602.8 233.7Q603.6 233.2 603.6 231.8L603.6 231.8L603.6 229.4L603.4 229.4Q603.2 230.0 602.7 230.4Q602.2 230.9 601.5 231.2Q600.7 231.5 599.7 231.5L599.7 231.5Q598.2 231.5 597.0 230.9Q595.8 230.2 595.1 228.7Q594.4 227.3 594.4 225.2L594.4 225.2Q594.4 222.9 595.1 221.4Q595.8 219.9 597.0 219.2Q598.2 218.5 599.7 218.5L599.7 218.5Q600.8 218.5 601.5 218.8Q602.3 219.2 602.7 219.8Q603.2 220.3 603.4 220.8L603.4 220.8L603.6 220.8L603.6 218.6L607.2 218.6L607.2 231.9Q607.2 233.5 606.4 234.7Q605.5 235.8 604.1 236.3Q602.6 236.9 600.8 236.9ZM600.8 228.8L600.8 228.8Q601.7 228.8 602.3 228.4Q602.9 227.9 603.3 227.1Q603.6 226.3 603.6 225.1L603.6 225.1Q603.6 224.0 603.3 223.1Q603.0 222.3 602.3 221.8Q601.7 221.4 600.8 221.4L600.8 221.4Q600.0 221.4 599.3 221.8Q598.7 222.3 598.4 223.2Q598.1 224.0 598.1 225.1L598.1 225.1Q598.1 226.3 598.4 227.1Q598.7 227.9 599.3 228.4Q600.0 228.8 600.8 228.8ZM615.4 232.0L615.4 232.0Q613.4 232.0 612.0 231.2Q610.5 230.3 609.7 228.8Q608.9 227.3 608.9 225.2L608.9 225.2Q608.9 223.2 609.7 221.7Q610.5 220.2 611.9 219.3Q613.4 218.5 615.3 218.5L615.3 218.5Q616.6 218.5 617.7 218.9Q618.8 219.3 619.7 220.1Q620.5 220.9 621.0 222.2Q621.4 223.4 621.4 225.1L621.4 225.1L621.4 226.1L610.4 226.1L610.4 223.9L618.0 223.9Q618.0 223.1 617.7 222.5Q617.3 221.9 616.7 221.5Q616.1 221.2 615.4 221.2L615.4 221.2Q614.5 221.2 613.9 221.6Q613.3 221.9 612.9 222.6Q612.5 223.2 612.5 224.0L612.5 224.0L612.5 226.1Q612.5 227.1 612.9 227.8Q613.3 228.5 613.9 228.9Q614.6 229.3 615.5 229.3L615.5 229.3Q616.1 229.3 616.6 229.1Q617.1 228.9 617.5 228.6Q617.8 228.3 618.0 227.8L618.0 227.8L621.4 228.0Q621.1 229.2 620.3 230.1Q619.5 231.0 618.3 231.5Q617.1 232.0 615.4 232.0ZM626.8 231.7L623.2 231.7L623.2 218.6L626.7 218.6L626.7 220.9L626.8 220.9Q627.2 219.8 628.2 219.1Q629.1 218.5 630.5 218.5L630.5 218.5Q631.8 218.5 632.8 219.1Q633.7 219.8 634.0 220.9L634.0 220.9L634.2 220.9Q634.6 219.8 635.6 219.1Q636.7 218.5 638.1 218.5L638.1 218.5Q639.9 218.5 641.1 219.6Q642.2 220.8 642.2 222.9L642.2 222.9L642.2 231.7L638.6 231.7L638.6 223.6Q638.6 222.5 638.0 222.0Q637.5 221.5 636.6 221.5L636.6 221.5Q635.6 221.5 635.0 222.1Q634.5 222.7 634.5 223.7L634.5 223.7L634.5 231.7L631.0 231.7L631.0 223.6Q631.0 222.6 630.4 222.0Q629.9 221.5 629.0 221.5L629.0 221.5Q628.4 221.5 627.9 221.8Q627.4 222.1 627.1 222.6Q626.8 223.1 626.8 223.9L626.8 223.9L626.8 231.7ZM650.5 232.0L650.5 232.0Q648.4 232.0 647.0 231.2Q645.5 230.3 644.8 228.8Q644.0 227.3 644.0 225.2L644.0 225.2Q644.0 223.2 644.8 221.7Q645.5 220.2 647.0 219.3Q648.4 218.5 650.3 218.5L650.3 218.5Q651.6 218.5 652.7 218.9Q653.9 219.3 654.7 220.1Q655.5 220.9 656.0 222.2Q656.5 223.4 656.5 225.1L656.5 225.1L656.5 226.1L645.4 226.1L645.4 223.9L653.1 223.9Q653.1 223.1 652.7 222.5Q652.4 221.9 651.8 221.5Q651.2 221.2 650.4 221.2L650.4 221.2Q649.6 221.2 648.9 221.6Q648.3 221.9 647.9 222.6Q647.6 223.2 647.6 224.0L647.6 224.0L647.6 226.1Q647.6 227.1 647.9 227.8Q648.3 228.5 648.9 228.9Q649.6 229.3 650.5 229.3L650.5 229.3Q651.1 229.3 651.6 229.1Q652.1 228.9 652.5 228.6Q652.9 228.3 653.0 227.8L653.0 227.8L656.4 228.0Q656.1 229.2 655.4 230.1Q654.6 231.0 653.3 231.5Q652.1 232.0 650.5 232.0ZM661.9 224.2L661.9 224.2L661.9 231.7L658.2 231.7L658.2 218.6L661.7 218.6L661.7 220.9L661.9 220.9Q662.3 219.8 663.3 219.1Q664.3 218.5 665.8 218.5L665.8 218.5Q667.2 218.5 668.2 219.1Q669.2 219.7 669.7 220.8Q670.3 221.9 670.3 223.4L670.3 223.4L670.3 231.7L666.7 231.7L666.7 224.0Q666.7 222.8 666.1 222.2Q665.4 221.5 664.4 221.5L664.4 221.5Q663.6 221.5 663.1 221.8Q662.5 222.1 662.2 222.7Q661.9 223.3 661.9 224.2ZM671.6 218.6L679.5 218.6L679.5 221.4L671.6 221.4L671.6 218.6ZM673.4 228.2L673.4 215.5L677.1 215.5L677.1 227.7Q677.1 228.2 677.2 228.5Q677.4 228.8 677.7 228.9Q677.9 229.0 678.3 229.0L678.3 229.0Q678.6 229.0 678.8 228.9Q679.1 228.9 679.2 228.9L679.2 228.9L679.8 231.6Q679.5 231.7 679.0 231.8Q678.5 231.9 677.8 231.9L677.8 231.9Q676.5 232.0 675.5 231.6Q674.5 231.2 674.0 230.3Q673.4 229.5 673.4 228.2L673.4 228.2Z "/><mask id="satori_om-id-1"><rect x="354" y="312" width="93" height="32" fill="#fff"/></mask><path fill="#1f2937" d="M359.1 336.7L355.4 336.7L355.4 323.6L359.1 323.6L359.1 336.7ZM357.3 321.9L357.3 321.9Q356.5 321.9 355.9 321.4Q355.3 320.9 355.3 320.1L355.3 320.1Q355.3 319.4 355.9 318.8Q356.5 318.3 357.3 318.3L357.3 318.3Q358.1 318.3 358.7 318.8Q359.2 319.4 359.2 320.1L359.2 320.1Q359.2 320.9 358.7 321.4Q358.1 321.9 357.3 321.9ZM365.6 329.2L365.6 329.2L365.6 336.7L362.0 336.7L362.0 323.6L365.4 323.6L365.4 325.9L365.6 325.9Q366.0 324.8 367.0 324.1Q368.1 323.5 369.5 323.5L369.5 323.5Q370.9 323.5 371.9 324.1Q372.9 324.7 373.5 325.8Q374.0 326.9 374.0 328.4L374.0 328.4L374.0 336.7L370.4 336.7L370.4 329.0Q370.4 327.8 369.8 327.2Q369.2 326.5 368.1 326.5L368.1 326.5Q367.4 326.5 366.8 326.8Q366.2 327.1 365.9 327.7Q365.6 328.3 365.6 329.2ZM384.8 323.6L388.6 323.6L384.1 336.7L380.0 336.7L375.4 323.6L379.2 323.6L381.9 333.0L382.1 333.0L384.8 323.6ZM396.0 337.0L396.0 337.0Q394.0 337.0 392.5 336.1Q391.1 335.3 390.3 333.8Q389.5 332.2 389.5 330.2L389.5 330.2Q389.5 328.2 390.3 326.7Q391.1 325.2 392.5 324.3Q394.0 323.5 396.0 323.5L396.0 323.5Q398.0 323.5 399.4 324.3Q400.8 325.2 401.6 326.7Q402.4 328.2 402.4 330.2L402.4 330.2Q402.4 332.2 401.6 333.8Q400.8 335.3 399.4 336.1Q398.0 337.0 396.0 337.0ZM396.0 334.2L396.0 334.2Q396.9 334.2 397.5 333.7Q398.1 333.1 398.4 332.2Q398.7 331.3 398.7 330.2L398.7 330.2Q398.7 329.1 398.4 328.2Q398.1 327.3 397.5 326.8Q396.9 326.2 396.0 326.2L396.0 326.2Q395.1 326.2 394.5 326.8Q393.8 327.3 393.5 328.2Q393.2 329.1 393.2 330.2L393.2 330.2Q393.2 331.3 393.5 332.2Q393.8 333.1 394.5 333.7Q395.1 334.2 396.0 334.2ZM408.4 336.7L404.8 336.7L404.8 323.6L408.4 323.6L408.4 336.7ZM406.6 321.9L406.6 321.9Q405.8 321.9 405.2 321.4Q404.6 320.9 404.6 320.1L404.6 320.1Q404.6 319.4 405.2 318.8Q405.8 318.3 406.6 318.3L406.6 318.3Q407.4 318.3 408.0 318.8Q408.6 319.4 408.6 320.1L408.6 320.1Q408.6 320.9 408.0 321.4Q407.4 321.9 406.6 321.9ZM417.2 337.0L417.2 337.0Q415.2 337.0 413.8 336.1Q412.3 335.3 411.5 333.7Q410.8 332.2 410.8 330.2L410.8 330.2Q410.8 328.2 411.6 326.7Q412.3 325.2 413.8 324.3Q415.2 323.5 417.2 323.5L417.2 323.5Q418.9 323.5 420.2 324.1Q421.5 324.7 422.2 325.8Q423.0 327.0 423.1 328.5L423.1 328.5L419.6 328.5Q419.5 327.5 418.9 326.9Q418.3 326.3 417.3 326.3L417.3 326.3Q416.4 326.3 415.8 326.8Q415.2 327.2 414.8 328.1Q414.5 328.9 414.5 330.2L414.5 330.2Q414.5 331.4 414.8 332.3Q415.2 333.2 415.8 333.7Q416.4 334.1 417.3 334.1L417.3 334.1Q417.9 334.1 418.4 333.9Q418.9 333.6 419.2 333.1Q419.5 332.6 419.6 331.9L419.6 331.9L423.1 331.9Q423.0 333.4 422.3 334.6Q421.5 335.7 420.2 336.3Q419.0 337.0 417.2 337.0Z "/><mask id="satori_om-id-1-1"><rect x="425" y="312" width="22" height="32" fill="#fff"/></mask><path fill="#4f46e5" d="M430.1 336.7L426.4 336.7L426.4 323.6L430.1 323.6L430.1 336.7ZM428.3 321.9L428.3 321.9Q427.5 321.9 426.9 321.4Q426.3 320.9 426.3 320.1L426.3 320.1Q426.3 319.4 426.9 318.8Q427.5 318.3 428.3 318.3L428.3 318.3Q429.1 318.3 429.7 318.8Q430.2 319.4 430.2 320.1L430.2 320.1Q430.2 320.9 429.7 321.4Q429.1 321.9 428.3 321.9ZM438.9 337.0L438.9 337.0Q436.9 337.0 435.5 336.1Q434.0 335.3 433.2 333.8Q432.4 332.2 432.4 330.2L432.4 330.2Q432.4 328.2 433.2 326.7Q434.0 325.2 435.5 324.3Q436.9 323.5 438.9 323.5L438.9 323.5Q440.9 323.5 442.3 324.3Q443.8 325.2 444.6 326.7Q445.3 328.2 445.3 330.2L445.3 330.2Q445.3 332.2 444.6 333.8Q443.8 335.3 442.3 336.1Q440.9 337.0 438.9 337.0ZM438.9 334.2L438.9 334.2Q439.8 334.2 440.4 333.7Q441.0 333.1 441.3 332.2Q441.6 331.3 441.6 330.2L441.6 330.2Q441.6 329.1 441.3 328.2Q441.0 327.3 440.4 326.8Q439.8 326.2 438.9 326.2L438.9 326.2Q438.0 326.2 437.4 326.8Q436.8 327.3 436.5 328.2Q436.1 329.1 436.1 330.2L436.1 330.2Q436.1 331.3 436.5 332.2Q436.8 333.1 437.4 333.7Q438.0 334.2 438.9 334.2Z "/></svg>